HIERARCHY
ROOT Hips
{
	OFFSET 0.00000 0.00000 0.00000
	CHANNELS 6 Xposition Yposition Zposition Zrotation Yrotation Xrotation 
	JOINT LHipJoint
	{
		OFFSET 0 0 0
		CHANNELS 3 Zrotation Yrotation Xrotation
		JOINT LeftUpLeg
		{
			OFFSET 1.37590 -1.78394 0.89329
			CHANNELS 3 Zrotation Yrotation Xrotation
			JOINT LeftLeg
			{
				OFFSET 2.47928 -6.81178 0.00000
				CHANNELS 3 Zrotation Yrotation Xrotation
				JOINT LeftFoot
				{
					OFFSET 2.63345 -7.23535 0.00000
					CHANNELS 3 Zrotation Yrotation Xrotation
					JOINT LeftToeBase
					{
						OFFSET 0.23938 -0.65768 2.27012
						CHANNELS 3 Zrotation Yrotation Xrotation
						End Site
						{
							OFFSET 0.00000 -0.00000 1.18363
						}
					}
				}
			}
		}
	}
	JOINT RHipJoint
	{
		OFFSET 0 0 0
		CHANNELS 3 Zrotation Yrotation Xrotation
		JOINT RightUpLeg
		{
			OFFSET -1.33617 -1.78394 0.89329
			CHANNELS 3 Zrotation Yrotation Xrotation
			JOINT RightLeg
			{
				OFFSET -2.56922 -7.05888 0.00000
				CHANNELS 3 Zrotation Yrotation Xrotation
				JOINT RightFoot
				{
					OFFSET -2.56568 -7.04915 0.00000
					CHANNELS 3 Zrotation Yrotation Xrotation
					JOINT RightToeBase
					{
						OFFSET -0.27533 -0.75646 2.18105
						CHANNELS 3 Zrotation Yrotation Xrotation
						End Site
						{
							OFFSET -0.00000 -0.00000 1.15233
						}
					}
				}
			}
		}
	}
	JOINT LowerBack
	{
		OFFSET 0 0 0
		CHANNELS 3 Zrotation Yrotation Xrotation
		JOINT Spine
		{
			OFFSET 0.06190 2.15152 -0.00935
			CHANNELS 3 Zrotation Yrotation Xrotation
			JOINT Spine1
			{
				OFFSET 0.06334 2.15332 0.00872
				CHANNELS 3 Zrotation Yrotation Xrotation
				JOINT Neck
				{
					OFFSET 0 0 0
					CHANNELS 3 Zrotation Yrotation Xrotation
					JOINT Neck1
					{
						OFFSET -0.04202 1.66908 0.23524
						CHANNELS 3 Zrotation Yrotation Xrotation
						JOINT Head
						{
							OFFSET 0.07510 1.69357 -0.24440
							CHANNELS 3 Zrotation Yrotation Xrotation
							End Site
							{
								OFFSET 0.02556 1.71719 -0.11000
							}
						}
					}
				}
				JOINT LeftShoulder
				{
					OFFSET 0 0 0
					CHANNELS 3 Zrotation Yrotation Xrotation
					JOINT LeftArm
					{
						OFFSET 3.67168 1.26306 -0.41342
						CHANNELS 3 Zrotation Yrotation Xrotation
						JOINT LeftForeArm
						{
							OFFSET 4.68510 -0.00000 -0.00000
							CHANNELS 3 Zrotation Yrotation Xrotation
							JOINT LeftHand
							{
								OFFSET 3.39626 -0.00000 -0.00000
								CHANNELS 3 Zrotation Yrotation Xrotation
								JOINT LeftFingerBase
								{
									OFFSET 0 0 0
									CHANNELS 3 Zrotation Yrotation Xrotation
									JOINT LeftHandIndex1
									{
										OFFSET 0.48608 -0.00000 -0.00000
										CHANNELS 3 Zrotation Yrotation Xrotation
										End Site
										{
											OFFSET 0.39189 -0.00000 -0.00000
										}
									}
								}
								JOINT LThumb
								{
									OFFSET 0 0 0
									CHANNELS 3 Zrotation Yrotation Xrotation
									End Site
									{
										OFFSET 0.39787 -0.00000 0.39787
									}
								}
							}
						}
					}
				}
				JOINT RightShoulder
				{
					OFFSET 0 0 0
					CHANNELS 3 Zrotation Yrotation Xrotation
					JOINT RightArm
					{
						OFFSET -3.04136 1.42992 -0.76390
						CHANNELS 3 Zrotation Yrotation Xrotation
						JOINT RightForeArm
						{
							OFFSET -5.55576 -0.00000 -0.00000
							CHANNELS 3 Zrotation Yrotation Xrotation
							JOINT RightHand
							{
								OFFSET -3.32774 -0.00000 -0.00000
								CHANNELS 3 Zrotation Yrotation Xrotation
								JOINT RightFingerBase
								{
									OFFSET 0 0 0
									CHANNELS 3 Zrotation Yrotation Xrotation
									JOINT RightHandIndex1
									{
										OFFSET -0.50763 -0.00000 -0.00000
										CHANNELS 3 Zrotation Yrotation Xrotation
										End Site
										{
											OFFSET -0.40926 -0.00000 -0.00000
										}
									}
								}
								JOINT RThumb
								{
									OFFSET 0 0 0
									CHANNELS 3 Zrotation Yrotation Xrotation
									End Site
									{
										OFFSET -0.41551 -0.00000 0.41551
									}
								}
							}
						}
					}
				}
			}
		}
	}
}
MOTION
Frames: 13
Frame Time: .0083333
2.1965 17.6535 3.5079 -89.6944 -79.7351 99.1945 0.0000 0.0000 0.0000 2.4655 -12.3912 -31.2934 0.5428 4.7203 13.1124 0.0353 4.9845 -8.1834 0.7263 -5.4455 -15.1836 0.0000 0.0000 0.0000 34.7249 3.5258 2.0124 -0.9533 -6.2176 17.4171 -0.8896 0.2228 -17.7563 -0.0087 -0.6014 1.6525 5.8875 1.5123 -1.5400 2.9168 1.9001 -1.5744 -0.2773 0.8779 -0.6632 -10.0429 -7.0192 -10.7146 8.1279 -8.8893 9.3979 3.4251 -4.2166 5.3982 -0.0000 0.0000 0.0000 -91.7609 5.6334 10.7617 16.6254 -26.3613 -3.9196 -0.0000 -0.0000 23.7402 12.4913 15.4075 3.3684 -7.1250 0.0000 -0.0000 -14.0886 45.2616 -0.0928 -0.0000 0.0000 0.0000 81.1253 -3.0430 21.4185 -60.6369 56.4773 -34.8715 0.0000 0.0000 11.0532 -17.9706 -24.7184 7.7239 7.1250 -0.0000 -0.0000 12.3969 -55.3735 -3.1926
2.0418 17.6366 3.5292 -90.0828 -79.7969 99.4761 0.0000 0.0000 0.0000 2.1448 -12.3268 -31.3137 0.6220 5.0469 14.0424 0.0238 4.4575 -7.1817 0.7362 -5.4816 -15.2873 0.0000 0.0000 0.0000 34.6172 3.5732 2.2779 -1.0413 -6.4899 18.2127 -0.9053 0.1874 -17.9249 -0.0002 -0.0948 0.2605 5.8374 1.4946 -1.4450 2.9637 1.8815 -1.5093 -0.2033 0.8705 -0.6533 -10.0062 -6.9232 -10.7093 8.0106 -8.7218 8.9710 3.4026 -4.1404 5.2421 -0.0000 0.0000 0.0000 -91.8172 5.9918 10.7523 16.5952 -26.3211 -3.9062 -0.0000 -0.0000 23.5993 12.4542 15.5499 3.3883 -7.1250 0.0000 -0.0000 -14.1660 45.3975 -0.1419 -0.0000 0.0000 0.0000 82.5885 -3.3959 20.0488 -56.4917 55.3002 -31.4388 0.0000 0.0000 10.0610 -18.3805 -25.3507 8.0970 7.1250 -0.0000 -0.0000 12.2828 -56.0868 -3.3764
1.8846 17.6220 3.5519 -90.7948 -79.9376 100.0750 0.0000 0.0000 0.0000 1.7499 -12.3107 -31.2412 0.6951 5.3296 14.8511 0.0070 3.9735 -5.9560 0.7325 -5.4681 -15.2487 0.0000 0.0000 0.0000 34.4242 3.6949 2.5071 -1.1482 -6.8041 19.1361 -0.9142 0.1080 -18.0409 -0.0049 0.4524 -1.2430 5.7129 1.4813 -1.3521 2.9769 1.8709 -1.4553 -0.1227 0.8676 -0.6545 -9.9448 -6.8194 -10.6971 7.9072 -8.5553 8.5952 3.3803 -4.0632 5.1008 -0.0000 0.0000 0.0000 -91.8424 6.3586 10.7067 16.5289 -26.2326 -3.8768 -0.0000 -0.0000 23.5257 12.3248 15.7562 3.3953 -7.1250 0.0000 -0.0000 -14.3474 45.5851 -0.2116 -0.0000 0.0000 0.0000 83.8424 -3.7169 18.8373 -52.3815 53.9120 -28.0876 0.0000 0.0000 9.0881 -18.8601 -25.9841 8.5118 7.1250 -0.0000 -0.0000 12.1023 -56.8186 -3.5411
1.7253 17.6105 3.5758 -91.7528 -80.1781 100.9320 0.0000 0.0000 0.0000 1.2481 -12.3362 -31.1307 0.7640 5.5819 15.5759 -0.0094 3.5566 -4.6056 0.7015 -5.3537 -14.9203 0.0000 0.0000 0.0000 34.1144 3.8749 2.6573 -1.2784 -7.1655 20.2065 -0.9150 0.0001 -18.0856 -0.0249 1.0181 -2.7985 5.4922 1.4642 -1.2836 2.9514 1.8556 -1.4099 -0.0280 0.8638 -0.6525 -9.8594 -6.7090 -10.6984 7.8152 -8.3888 8.2784 3.3567 -3.9841 4.9801 0.0000 0.0000 0.0000 -91.8423 6.7019 10.5857 16.4126 -26.0769 -3.8255 -0.0000 -0.0000 23.5412 12.0682 16.0283 3.3784 -7.1250 0.0000 -0.0000 -14.6660 45.8210 -0.3037 0.0000 0.0000 0.0000 84.8811 -3.9970 17.8348 -48.3432 52.3050 -24.8570 0.0000 0.0000 8.1487 -19.3664 -26.7271 8.9831 7.1250 -0.0000 -0.0000 11.9569 -57.6689 -3.7442
1.5644 17.6033 3.6006 -92.9136 -80.5247 101.9920 0.0000 0.0000 0.0000 0.6184 -12.4030 -30.9803 0.8304 5.8135 16.2443 -0.0209 3.2424 -3.2896 0.6393 -5.1153 -14.2378 0.0000 0.0000 0.0000 33.6694 4.0763 2.7163 -1.4344 -7.5725 21.4229 -0.9049 -0.1207 -18.0271 -0.0616 1.6019 -4.4067 5.1649 1.4388 -1.2297 2.8877 1.8304 -1.3690 0.0870 0.8562 -0.6493 -9.7583 -6.5935 -10.7137 7.7387 -8.2228 8.0224 3.3343 -3.9037 4.8811 -0.0000 -0.0000 0.0000 -91.8166 7.0143 10.3856 16.2374 -25.8415 -3.7488 -0.0000 -0.0000 23.6554 11.8491 16.2051 3.3509 -7.1250 0.0000 -0.0000 -14.9220 45.9672 -0.3643 -0.0000 -0.0000 0.0000 85.7071 -4.2460 17.0628 -44.4212 50.4818 -21.7914 0.0000 0.0000 7.2452 -19.8383 -27.5133 9.4621 7.1250 -0.0000 -0.0000 11.8823 -58.5583 -3.9754
1.4022 17.6008 3.6262 -94.1324 -80.9564 103.1130 0.0000 0.0000 0.0000 -0.1331 -12.4932 -30.8224 0.9002 6.0467 16.9201 -0.0254 2.9983 -2.1531 0.5490 -4.7466 -13.1873 0.0000 0.0000 0.0000 33.1014 4.2578 2.6507 -1.6210 -8.0275 22.7977 -0.8816 -0.2275 -17.8325 -0.1119 2.1572 -5.9402 4.7592 1.3965 -1.1900 2.7913 1.7829 -1.3311 0.2122 0.8386 -0.6430 -9.6418 -6.4733 -10.7501 7.6801 -8.0571 7.8258 3.3138 -3.8215 4.8045 -0.0000 -0.0000 0.0000 -91.7669 7.2793 10.0843 15.9980 -25.5179 -3.6451 -0.0000 -0.0000 23.8964 11.6650 16.2797 3.3123 -7.1250 0.0000 -0.0000 -15.1134 46.0174 -0.3883 -0.0000 -0.0000 0.0000 86.3323 -4.4596 16.5397 -40.6534 48.4523 -18.9268 0.0000 0.0000 6.3837 -20.1963 -28.3100 9.8958 7.1250 -0.0000 -0.0000 11.9520 -59.4348 -4.2508
1.2387 17.6031 3.6527 -95.2763 -81.4282 104.1520 0.0000 0.0000 0.0000 -0.9682 -12.5912 -30.6450 0.9771 6.2926 17.6359 -0.0245 2.7901 -1.2918 0.4382 -4.2477 -11.7745 0.0000 0.0000 0.0000 32.4514 4.3800 2.4548 -1.8410 -8.5268 24.3259 -0.8438 -0.2958 -17.4710 -0.1699 2.6550 -7.3197 4.3278 1.3378 -1.1592 2.6768 1.7135 -1.2948 0.3337 0.8101 -0.6336 -9.5181 -6.3536 -10.7871 7.6399 -7.8983 7.6742 3.2967 -3.7416 4.7433 0.0000 -0.0000 0.0000 -91.6980 7.5009 9.6813 15.6941 -25.1041 -3.5152 -0.0000 -0.0000 24.2609 11.5360 16.2293 3.2649 -7.1250 0.0000 -0.0000 -15.2136 45.9520 -0.3659 0.0000 -0.0000 0.0000 86.7739 -4.6506 16.2480 -37.0762 46.2390 -16.2950 0.0000 0.0000 5.6057 -20.3359 -29.1552 10.2350 7.1250 -0.0000 -0.0000 12.3129 -60.3082 -4.6388
1.0739 17.6098 3.6806 -96.2115 -81.8760 104.9650 0.0000 0.0000 0.0000 -1.8221 -12.6759 -30.4268 1.0606 6.5479 18.3827 -0.0207 2.5646 -0.6729 0.3207 -3.6402 -10.0665 0.0000 0.0000 0.0000 31.7840 4.4205 2.1229 -2.0980 -9.0673 26.0060 -0.7894 -0.3132 -16.9079 -0.2262 3.0612 -8.4492 3.9504 1.2655 -1.1284 2.5618 1.6247 -1.2577 0.4246 0.7712 -0.6218 -9.3916 -6.2361 -10.8169 7.6166 -7.7480 7.5616 3.2833 -3.6650 4.6946 0.0000 -0.0000 0.0000 -91.6115 7.6824 9.1738 15.3318 -24.6063 -3.3629 -0.0000 -0.0000 24.7480 11.4219 16.1583 3.2180 -7.1250 0.0000 -0.0000 -15.2934 45.8686 -0.3357 0.0000 -0.0000 0.0000 87.0555 -4.8234 16.1630 -33.7053 43.8652 -13.9084 0.0000 0.0000 4.9572 -20.2462 -29.8403 10.3998 7.1250 -0.0000 -0.0000 12.8546 -60.9645 -5.0478
0.9085 17.6198 3.7099 -96.7948 -82.2477 105.4060 0.0000 0.0000 0.0000 -2.6235 -12.7397 -30.1545 1.1480 6.8033 19.1340 -0.0159 2.3202 -0.2003 0.2063 -2.9246 -8.0688 0.0000 0.0000 0.0000 31.1609 4.3864 1.6551 -2.3956 -9.6456 27.8366 -0.7175 -0.2964 -16.1176 -0.2721 3.3556 -9.2704 3.6853 1.1823 -1.0868 2.4642 1.5201 -1.2226 0.4709 0.7228 -0.6152 -9.2642 -6.1221 -10.8368 7.5982 -7.6065 7.4939 3.2703 -3.5927 4.6593 0.0000 0.0000 0.0000 -91.5152 7.8305 8.5579 14.9214 -24.0365 -3.1939 -0.0000 -0.0000 25.3577 11.2952 16.1136 3.1729 -7.1250 0.0000 -0.0000 -15.3930 45.8092 -0.3149 0.0000 0.0000 0.0000 87.2008 -4.9876 16.2500 -30.5521 41.3620 -11.7728 0.0000 0.0000 4.5021 -19.8486 -30.3204 10.3280 7.1250 -0.0000 -0.0000 13.6241 -61.3391 -5.4776
0.7428 17.6321 3.7410 -97.0184 -82.5131 105.4630 0.0000 0.0000 0.0000 -3.3253 -12.7988 -29.7963 1.2333 7.0426 19.8418 -0.0117 2.1028 0.1564 0.1133 -2.1703 -5.9764 0.0000 0.0000 0.0000 30.6157 4.2970 1.0592 -2.7364 -10.2556 29.8085 -0.6269 -0.2815 -15.0660 -0.3006 3.5253 -9.7447 3.5619 1.0951 -1.0372 2.3964 1.4081 -1.1836 0.4688 0.6690 -0.6062 -9.1427 -6.0122 -10.8376 7.5797 -7.4729 7.4558 3.2575 -3.5249 4.6310 -0.0000 0.0000 0.0000 -91.4169 7.9383 7.8280 14.4675 -23.3990 -3.0113 -0.0000 -0.0000 26.0864 11.1440 16.1018 3.1272 -7.1250 0.0000 -0.0000 -15.5257 45.7791 -0.3059 -0.0000 0.0000 0.0000 87.2326 -5.1439 16.4613 -27.6206 38.7646 -9.8852 0.0000 0.0000 4.2916 -19.0924 -30.5147 9.9681 7.1250 -0.0000 -0.0000 14.6034 -61.3418 -5.8815
0.5773 17.6456 3.7740 -96.9724 -82.6795 105.2270 0.0000 0.0000 0.0000 -3.9250 -12.8782 -29.3325 1.3112 7.2533 20.4679 -0.0084 1.9105 0.3714 0.0507 -1.4526 -3.9952 0.0000 0.0000 0.0000 30.1411 4.1791 0.3397 -3.1224 -10.8906 31.9118 -0.5181 -0.3329 -13.7240 -0.3065 3.5594 -9.8403 3.5704 1.0086 -0.9727 2.3561 1.2960 -1.1449 0.4211 0.6137 -0.6036 -9.0187 -5.9054 -10.8362 7.5437 -7.3453 7.4732 3.2379 -3.4609 4.6193 0.0000 0.0000 0.0000 -91.3168 8.0075 6.9741 13.9740 -22.6975 -2.8181 -0.0000 -0.0000 26.9523 10.9732 16.1048 3.0787 -7.1250 0.0000 -0.0000 -15.6810 45.7612 -0.3020 0.0000 0.0000 0.0000 87.1773 -5.2988 16.7498 -24.9029 36.1045 -8.2326 0.0000 0.0000 4.3928 -17.9677 -30.3788 9.3137 7.1250 -0.0000 -0.0000 15.7472 -60.9343 -6.2021
0.4128 17.6595 3.8085 -96.8780 -82.7842 104.9330 0.0000 0.0000 0.0000 -4.4575 -12.9968 -28.7750 1.3792 7.4315 21.0002 -0.0066 1.7519 0.4216 0.0171 -0.8446 -2.3212 0.0000 0.0000 0.0000 29.6946 4.0663 -0.5123 -3.5565 -11.5456 34.1429 -0.3934 -0.5537 -12.0614 -0.2894 3.4593 -9.5603 3.6614 0.9282 -0.9061 2.3350 1.1909 -1.1050 0.3473 0.5610 -0.5998 -8.8935 -5.8026 -10.8435 7.4858 -7.2224 7.5403 3.2102 -3.4001 4.6241 0.0000 -0.0000 0.0000 -91.2173 8.0195 5.9862 13.4468 -21.9384 -2.6179 -0.0000 -0.0000 27.9498 10.7254 16.1539 3.0166 -7.1250 0.0000 -0.0000 -15.9208 45.7785 -0.3139 0.0000 -0.0000 0.0000 87.0546 -5.4481 17.0565 -22.4050 33.4317 -6.8076 0.0000 0.0000 4.9100 -16.4080 -29.9143 8.3543 7.1250 -0.0000 -0.0000 17.1067 -60.1148 -6.4202
0.2493 17.6732 3.8445 -96.9964 -82.8808 104.8400 0.0000 0.0000 0.0000 -4.9839 -13.1786 -28.1064 1.4351 7.5742 21.4279 -0.0068 1.6734 0.2625 0.0040 -0.4098 -1.1260 0.0000 0.0000 0.0000 29.2162 3.9770 -1.4733 -4.0350 -12.2068 36.4675 -0.2598 -1.0188 -10.0531 -0.2563 3.2571 -8.9953 3.7685 0.8593 -0.8312 2.3209 1.1014 -1.0649 0.2718 0.5159 -0.6002 -8.7689 -5.7038 -10.8580 7.4008 -7.1033 7.6476 3.1733 -3.3423 4.6418 0.0000 -0.0000 0.0000 -91.1179 7.9803 4.8740 12.8924 -21.1293 -2.4144 -0.0000 -0.0000 29.0810 10.4582 16.1912 2.9464 -7.1250 0.0000 -0.0000 -16.1742 45.7818 -0.3205 0.0000 -0.0000 0.0000 86.8811 -5.5969 17.2981 -20.1191 30.7855 -5.5922 0.0000 0.0000 5.9314 -14.4146 -29.1253 7.1307 7.1250 -0.0000 -0.0000 18.6648 -58.9056 -6.4857
